<?xml version="1.0" encoding="UTF-8"?><svg id="a" xmlns="http://www.w3.org/2000/svg" viewBox="0 0 32 32"><path d="M21.42,7.19h-13.2v-1.51h13.2v1.51ZM21.42,10.74h-13.2v1.51h13.2v-1.51ZM21.42,15.8h-13.2v1.51h13.2v-1.51ZM19.22,20.85h-11v1.51h11v-1.51ZM8.22,27.42h8.55v-1.51h-8.55v1.51ZM30.37,14.61c-.62-.62-1.51-.65-2.09-.08l-.21.21,2.18,2.18.2-.21c.57-.57.54-1.48-.08-2.1ZM29.97,17.18l-3.49,3.49v7.62c0,2.05-1.67,3.72-3.72,3.72H6.87c-2.05,0-3.72-1.67-3.72-3.72V4.82c0-2.05,1.67-3.72,3.72-3.72h2.36v-.4c0-.39.32-.71.71-.71h9.76c.39,0,.71.32.71.71v.4h2.36c2.05,0,3.72,1.67,3.72,3.72v11.5l1.31-1.31.54.53.48.5.08.06.53.54.54.53ZM24.97,22.18l-4.64,4.64-2.13-.06-.03-2.1,6.8-6.81V4.82c0-1.22-.99-2.21-2.21-2.21H6.87c-1.22,0-2.21.99-2.21,2.21v23.46c0,1.22.99,2.21,2.21,2.21h15.9c1.22,0,2.21-.99,2.21-2.21v-6.1Z" fill="currentColor"/></svg>